<svg width="172" height="38" viewBox="0 0 172 38" fill="none" xmlns="http://www.w3.org/2000/svg">
<path d="M28.473 18.908C28.3856 18.9779 28.3372 18.994 28.3278 18.9564C27.4771 18.9416 26.6265 18.9342 25.7758 18.9342C24.577 18.9342 23.7277 18.8959 23.2278 18.8193C21.2832 18.5223 19.6288 17.7166 18.2648 16.4023C15.4681 13.7065 14.6302 10.3299 15.751 6.27273C15.88 6.0362 16.005 5.78624 16.126 5.52284C17.4463 2.67849 19.8674 0.821902 22.9375 0.140549C23.3071 0.0585716 23.9454 0.0162388 24.8525 0.013551C29.1664 -0.00123178 33.4346 -0.00391975 37.6571 0.0054875C37.8211 0.0054875 37.8661 0.0787296 37.7922 0.225214L28.473 18.908Z" fill="#6C72FF"/>
<path d="M15.751 6.27271C14.6302 10.3299 15.4681 13.7064 18.2648 16.4023C19.6288 17.7166 21.2831 18.5223 23.2277 18.8193C23.7277 18.8959 24.577 18.9342 25.7758 18.9342C26.6264 18.9342 27.4771 18.9416 28.3278 18.9564L18.8917 38L0.108104 37.9939C0.0896412 37.9938 0.071515 37.989 0.0554287 37.9799C0.0393425 37.9708 0.0258242 37.9578 0.0161477 37.9421C0.00647116 37.9264 0.000953335 37.9085 0.000112865 37.89C-0.000727604 37.8716 0.00313678 37.8532 0.0113431 37.8367L15.751 6.27271Z" fill="#D0D0FB"/>
<path d="M18.8916 38L28.3277 18.9564C28.3371 18.994 28.3855 18.9779 28.4729 18.908C29.6649 18.8986 30.8442 18.8939 32.0107 18.8939C33.2242 18.8953 34.4922 19.1997 35.8146 19.8071C40.1466 21.7987 42.2592 26.7396 40.8582 31.2913C39.8684 34.5026 37.1692 37.0506 33.8249 37.7823C33.161 37.9275 32.1457 38 30.779 38C26.8548 37.9987 22.8924 37.9987 18.8916 38Z" fill="#212D9D"/>
<path d="M64.8364 16.3195C64.7285 15.9445 64.5769 15.6132 64.3817 15.3255C64.1865 15.0326 63.9476 14.786 63.6651 14.5857C63.3876 14.3802 63.0691 14.2235 62.7095 14.1156C62.355 14.0077 61.962 13.9538 61.5305 13.9538C60.7239 13.9538 60.015 14.1542 59.4037 14.5549C58.7975 14.9556 58.3248 15.5387 57.9858 16.3041C57.6467 17.0644 57.4772 17.9943 57.4772 19.0937C57.4772 20.1931 57.6441 21.1281 57.9781 21.8987C58.312 22.6692 58.7846 23.2575 59.396 23.6633C60.0073 24.064 60.7291 24.2644 61.5613 24.2644C62.3165 24.2644 62.9612 24.1308 63.4955 23.8637C64.0349 23.5914 64.4459 23.2087 64.7285 22.7155C65.0162 22.2223 65.16 21.6392 65.16 20.9662L65.8381 21.0664H61.7694V18.5543H68.3734V20.5424C68.3734 21.9295 68.0806 23.1213 67.4949 24.118C66.9093 25.1095 66.1027 25.8749 65.0752 26.4143C64.0478 26.9486 62.8713 27.2158 61.5459 27.2158C60.0664 27.2158 58.7666 26.8895 57.6467 26.2371C56.5268 25.5795 55.6534 24.6471 55.0267 23.4398C54.4051 22.2274 54.0942 20.789 54.0942 19.1245C54.0942 17.8453 54.2792 16.7048 54.6491 15.7031C55.0241 14.6961 55.5481 13.8433 56.2211 13.1447C56.8941 12.446 57.6775 11.9143 58.5714 11.5495C59.4653 11.1848 60.4337 11.0024 61.4766 11.0024C62.3705 11.0024 63.2027 11.1334 63.9733 11.3954C64.7439 11.6523 65.4272 12.017 66.0231 12.4897C66.6241 12.9623 67.1148 13.5248 67.4949 14.1773C67.8751 14.8246 68.1191 15.5387 68.227 16.3195H64.8364ZM70.8798 27V11.2182H77.1987C78.3597 11.2182 79.3281 11.3903 80.1038 11.7345C80.8795 12.0787 81.4626 12.5565 81.8531 13.1678C82.2435 13.774 82.4387 14.4727 82.4387 15.2638C82.4387 15.8803 82.3154 16.4223 82.0688 16.8898C81.8222 17.3521 81.4832 17.7323 81.0516 18.0303C80.6252 18.3231 80.1372 18.5311 79.5875 18.6544V18.8086C80.1886 18.8342 80.7511 19.0038 81.2751 19.3172C81.8043 19.6305 82.2332 20.0698 82.562 20.6349C82.8908 21.1948 83.0552 21.8627 83.0552 22.6384C83.0552 23.4758 82.8471 24.2233 82.431 24.8809C82.02 25.5333 81.4113 26.0496 80.6047 26.4298C79.7981 26.8099 78.8041 27 77.6225 27H70.8798ZM74.2164 24.2721H76.9367C77.8665 24.2721 78.5446 24.0949 78.971 23.7404C79.3974 23.3808 79.6106 22.903 79.6106 22.3071C79.6106 21.8704 79.5053 21.4851 79.2947 21.1512C79.0841 20.8172 78.7835 20.5552 78.3931 20.3652C78.0078 20.1751 77.548 20.08 77.0137 20.08H74.2164V24.2721ZM74.2164 17.8222H76.6901C77.1473 17.8222 77.5531 17.7426 77.9076 17.5833C78.2672 17.4189 78.5498 17.1877 78.7553 16.8898C78.9659 16.5918 79.0712 16.2348 79.0712 15.8186C79.0712 15.2484 78.8683 14.7886 78.4624 14.4393C78.0617 14.0899 77.4915 13.9153 76.7517 13.9153H74.2164V17.8222ZM92.9689 27H89.3933L94.8415 11.2182H99.1414L104.582 27H101.006L97.0531 14.8246H96.9298L92.9689 27ZM92.7454 20.7967H101.191V23.4013H92.7454V20.7967ZM110.23 27.1926C109.331 27.1926 108.517 26.9615 107.787 26.4991C107.063 26.0316 106.488 25.3458 106.061 24.4416C105.64 23.5323 105.429 22.4175 105.429 21.0972C105.429 19.741 105.648 18.6133 106.084 17.7143C106.521 16.8101 107.102 16.1346 107.826 15.6876C108.556 15.2356 109.354 15.0095 110.223 15.0095C110.885 15.0095 111.438 15.1225 111.879 15.3486C112.326 15.5695 112.686 15.8469 112.958 16.1808C113.236 16.5096 113.446 16.8333 113.59 17.1518H113.69V11.2182H116.965V27H113.729V25.1043H113.59C113.436 25.4331 113.218 25.7593 112.935 26.083C112.658 26.4015 112.295 26.6661 111.849 26.8767C111.407 27.0873 110.867 27.1926 110.23 27.1926ZM111.271 24.5803C111.8 24.5803 112.247 24.4365 112.611 24.1488C112.981 23.856 113.264 23.4475 113.459 22.9235C113.659 22.3995 113.76 21.7856 113.76 21.0818C113.76 20.378 113.662 19.7667 113.467 19.2478C113.272 18.7289 112.989 18.3282 112.619 18.0457C112.249 17.7631 111.8 17.6218 111.271 17.6218C110.731 17.6218 110.277 17.7683 109.907 18.0611C109.537 18.3539 109.257 18.7598 109.067 19.2786C108.877 19.7975 108.782 20.3986 108.782 21.0818C108.782 21.7702 108.877 22.379 109.067 22.9081C109.262 23.4321 109.542 23.8431 109.907 24.1411C110.277 24.4339 110.731 24.5803 111.271 24.5803ZM130.699 15.1636L126.561 27H122.862L118.724 15.1636H122.192L124.65 23.6325H124.773L127.224 15.1636H130.699ZM132.379 27V15.1636H135.662V27H132.379ZM134.028 13.6379C133.54 13.6379 133.121 13.476 132.772 13.1524C132.428 12.8236 132.256 12.4306 132.256 11.9734C132.256 11.5213 132.428 11.1334 132.772 10.8098C133.121 10.481 133.54 10.3166 134.028 10.3166C134.516 10.3166 134.932 10.481 135.277 10.8098C135.626 11.1334 135.801 11.5213 135.801 11.9734C135.801 12.4306 135.626 12.8236 135.277 13.1524C134.932 13.476 134.516 13.6379 134.028 13.6379ZM148.14 18.5388L145.134 18.7238C145.083 18.4669 144.973 18.2357 144.803 18.0303C144.634 17.8196 144.41 17.6527 144.133 17.5294C143.86 17.4009 143.534 17.3367 143.154 17.3367C142.645 17.3367 142.216 17.4446 141.867 17.6604C141.518 17.871 141.343 18.1536 141.343 18.508C141.343 18.7906 141.456 19.0295 141.682 19.2247C141.908 19.4199 142.296 19.5766 142.846 19.6947L144.988 20.1263C146.139 20.3626 146.997 20.7428 147.562 21.2668C148.127 21.7908 148.409 22.4792 148.409 23.332C148.409 24.1077 148.181 24.7884 147.724 25.374C147.272 25.9597 146.65 26.4169 145.859 26.7457C145.073 27.0694 144.166 27.2312 143.139 27.2312C141.572 27.2312 140.323 26.905 139.394 26.2525C138.469 25.5949 137.927 24.7011 137.768 23.5708L140.996 23.4013C141.094 23.8791 141.33 24.2438 141.705 24.4956C142.08 24.7422 142.561 24.8654 143.146 24.8654C143.722 24.8654 144.184 24.755 144.533 24.5341C144.888 24.308 145.068 24.0178 145.073 23.6633C145.068 23.3654 144.942 23.1213 144.695 22.9313C144.449 22.736 144.068 22.5871 143.555 22.4843L141.505 22.0759C140.349 21.8447 139.489 21.444 138.923 20.8738C138.363 20.3035 138.083 19.5766 138.083 18.693C138.083 17.9326 138.289 17.2776 138.7 16.7279C139.116 16.1783 139.699 15.7544 140.449 15.4565C141.204 15.1585 142.088 15.0095 143.1 15.0095C144.595 15.0095 145.771 15.3255 146.629 15.9574C147.492 16.5892 147.996 17.4497 148.14 18.5388ZM155.871 27.2312C154.653 27.2312 153.605 26.9846 152.727 26.4914C151.853 25.9931 151.18 25.2893 150.708 24.38C150.235 23.4655 149.999 22.3841 149.999 21.1358C149.999 19.9182 150.235 18.8497 150.708 17.9301C151.18 17.0105 151.846 16.2938 152.704 15.7801C153.567 15.2664 154.579 15.0095 155.74 15.0095C156.521 15.0095 157.248 15.1354 157.921 15.3871C158.599 15.6337 159.189 16.0062 159.693 16.5045C160.202 17.0028 160.597 17.6295 160.88 18.3847C161.162 19.1348 161.303 20.0133 161.303 21.0202V21.9218H151.309V19.8874H158.213C158.213 19.4148 158.111 18.9961 157.905 18.6313C157.7 18.2666 157.415 17.9815 157.05 17.776C156.69 17.5653 156.271 17.46 155.794 17.46C155.295 17.46 154.854 17.5756 154.468 17.8068C154.088 18.0328 153.79 18.3385 153.574 18.7238C153.359 19.104 153.248 19.5278 153.243 19.9953V21.9295C153.243 22.5151 153.351 23.0212 153.567 23.4475C153.788 23.8739 154.098 24.2027 154.499 24.4339C154.9 24.6651 155.375 24.7807 155.925 24.7807C156.289 24.7807 156.623 24.7293 156.927 24.6266C157.23 24.5238 157.489 24.3697 157.705 24.1642C157.921 23.9587 158.085 23.707 158.198 23.409L161.234 23.6094C161.08 24.3389 160.764 24.9759 160.286 25.5205C159.814 26.0599 159.202 26.4811 158.452 26.7842C157.707 27.0822 156.847 27.2312 155.871 27.2312ZM163.446 27V15.1636H166.628V17.2288H166.752C166.967 16.4942 167.33 15.9394 167.838 15.5643C168.347 15.1842 168.932 14.9941 169.595 14.9941C169.76 14.9941 169.937 15.0044 170.127 15.0249C170.317 15.0455 170.484 15.0737 170.628 15.1097V18.0225C170.474 17.9763 170.26 17.9352 169.988 17.8993C169.716 17.8633 169.467 17.8453 169.241 17.8453C168.758 17.8453 168.326 17.9506 167.946 18.1613C167.571 18.3667 167.273 18.6544 167.052 19.0243C166.836 19.3942 166.728 19.8206 166.728 20.3035V27H163.446Z" fill="black"/>
</svg>
