<svg width="20" height="16" viewBox="0 0 20 16" fill="none" xmlns="http://www.w3.org/2000/svg">
<path fill-rule="evenodd" clip-rule="evenodd" d="M15 7C17.0871 7 18.9253 8.06562 20.0002 9.68246L19.9993 13H12L11.999 14.952L12.0215 16H0V15C0 11.6863 2.68629 9 6 9C7.37834 9 8.65093 9.46574 9.66616 10.2518C10.662 8.32039 12.6768 7 15 7ZM6 11C4.26204 11 2.78296 12.1084 2.23109 13.6569L2.16936 13.8447L2.126 14H9.873L9.8362 13.8625C9.38265 12.3295 8.0355 11.1846 6.4051 11.0203L6.19987 11.0049L6 11ZM15 9C13.6048 9 12.3764 9.71436 11.6606 10.7973L11.535 11H18.464L18.3707 10.845C17.6927 9.78716 16.5304 9.07078 15.2007 9.00496L15 9ZM6 0C8.20914 0 10 1.79086 10 4C10 6.20914 8.20914 8 6 8C3.79086 8 2 6.20914 2 4C2 1.79086 3.79086 0 6 0ZM15 0C16.6569 0 18 1.34315 18 3C18 4.65685 16.6569 6 15 6C13.3431 6 12 4.65685 12 3C12 1.34315 13.3431 0 15 0ZM6 2C4.89543 2 4 2.89543 4 4C4 5.10457 4.89543 6 6 6C7.10457 6 8 5.10457 8 4C8 2.89543 7.10457 2 6 2ZM15 2C14.7239 2 14 2 14 2C14 2 14 2.72386 14 3C14 3.27614 14 4 14 4C14 4 14.7239 4 15 4C15.2761 4 16 4 16 4C16 4 16 3.27614 16 3C16 2.86441 16 2 16 2C16 2 15.1356 2 15 2Z" fill="#7E84A3"/>
</svg>
